<?xml version="1.0" encoding="utf-8"?>

<!-- Examples of material colors -->
<svg version="1.1" xmlns="http://www.w3.org/2000/svg" xmlns:xlink="http://www.w3.org/1999/xlink" x="0px" y="0px" width="800px"
	 height="1488px" viewBox="0 0 800 1488" enable-background="new 0 0 800 1488" xml:space="preserve">


<!-- Grid of colors -->
<g id="material-design-color-chart">

	<!-- red -->
	<g>
		<rect x="120" y="60" fill="#FFEFEB" width="64" height="64"/>
		<rect x="188" y="60" fill="#FFDCD1" width="64" height="64"/>
		<rect x="256" y="60" fill="#FFBDA8" width="64" height="64"/>
		<rect x="324" y="60" fill="#FF997A" width="64" height="64"/>
		<rect x="392" y="60" fill="#FF764D" width="64" height="64"/>
		<rect x="460" y="60" fill="#FF5722" width="64" height="64"/>
		<rect x="528" y="60" fill="#E63600" width="64" height="64"/>
		<rect x="596" y="60" fill="#AD2800" width="64" height="64"/>
		<rect x="664" y="60" fill="#751B00" width="64" height="64"/>
		<rect x="732" y="60" fill="#380D00" width="64" height="64"/>
		<rect x="800" y="60" fill="#1F0700" width="64" height="64"/>
	</g>

	<!-- pink -->
	<g>
		<rect x="120" y="128" fill="#FDEDF5" width="64" height="64"/>
		<rect x="188" y="128" fill="#FBDAEB" width="64" height="64"/>
		<rect x="256" y="128" fill="#F7B5D6" width="64" height="64"/>
		<rect x="324" y="128" fill="#F390C2" width="64" height="64"/>
		<rect x="392" y="128" fill="#F06BAD" width="64" height="64"/>
		<rect x="460" y="128" fill="#EC4899" width="64" height="64"/>
		<rect x="528" y="128" fill="#DE177A" width="64" height="64"/>
		<rect x="596" y="128" fill="#A6115C" width="64" height="64"/>
		<rect x="664" y="128" fill="#6F0C3D" width="64" height="64"/>
		<rect x="732" y="128" fill="#37061F" width="64" height="64"/>
		<rect x="800" y="128" fill="#1C030F" width="64" height="64"/>
	</g>

	<!-- fuchsia -->
	<g>
		<rect x="120" y="196" fill="#FBECFD" width="64" height="64"/>
		<rect x="188" y="196" fill="#F7D9FC" width="64" height="64"/>
		<rect x="256" y="196" fill="#EFB4F9" width="64" height="64"/>
		<rect x="324" y="196" fill="#E88EF5" width="64" height="64"/>
		<rect x="392" y="196" fill="#E069F2" width="64" height="64"/>
		<rect x="460" y="196" fill="#D946EF" width="64" height="64"/>
		<rect x="528" y="196" fill="#C613E1" width="64" height="64"/>
		<rect x="596" y="196" fill="#940FA9" width="64" height="64"/>
		<rect x="664" y="196" fill="#630A71" width="64" height="64"/>
		<rect x="732" y="196" fill="#310538" width="64" height="64"/>
		<rect x="800" y="196" fill="#19021C" width="64" height="64"/>
	</g>

	<!-- purple -->
	<g>
		<rect x="120" y="264" fill="#F8F0FE" width="64" height="64"/>
		<rect x="188" y="264" fill="#EEDDFD" width="64" height="64"/>
		<rect x="256" y="264" fill="#DCBBFC" width="64" height="64"/>
		<rect x="324" y="264" fill="#CB99FA" width="64" height="64"/>
		<rect x="392" y="264" fill="#BA77F9" width="64" height="64"/>
		<rect x="460" y="264" fill="#A855F7" width="64" height="64"/>
		<rect x="528" y="264" fill="#8815F4" width="64" height="64"/>
		<rect x="596" y="264" fill="#6609BE" width="64" height="64"/>
		<rect x="664" y="264" fill="#44067F" width="64" height="64"/>
		<rect x="732" y="264" fill="#22033F" width="64" height="64"/>
		<rect x="800" y="264" fill="#120222" width="64" height="64"/>
	</g>

	<!-- amethyst -->
	<g>
		<rect x="120" y="332" fill="#F4EDF7" width="64" height="64"/>
		<rect x="188" y="332" fill="#ECDFF1" width="64" height="64"/>
		<rect x="256" y="332" fill="#D7BCE1" width="64" height="64"/>
		<rect x="324" y="332" fill="#C49CD3" width="64" height="64"/>
		<rect x="392" y="332" fill="#AE78C4" width="64" height="64"/>
		<rect x="460" y="332" fill="#9B59B6" width="64" height="64"/>
		<rect x="528" y="332" fill="#7D4195" width="64" height="64"/>
		<rect x="596" y="332" fill="#5F3271" width="64" height="64"/>
		<rect x="664" y="332" fill="#3F214A" width="64" height="64"/>
		<rect x="732" y="332" fill="#211127" width="64" height="64"/>
		<rect x="800" y="332" fill="#0F0812" width="64" height="64"/>
	</g>

	<!-- indigo -->
	<g>
		<rect x="120" y="400" fill="#F1F1FE" width="64" height="64"/>
		<rect x="188" y="400" fill="#DEDFFC" width="64" height="64"/>
		<rect x="256" y="400" fill="#C2C3FA" width="64" height="64"/>
		<rect x="324" y="400" fill="#A1A3F7" width="64" height="64"/>
		<rect x="392" y="400" fill="#8183F4" width="64" height="64"/>
		<rect x="460" y="400" fill="#6366F1" width="64" height="64"/>
		<rect x="528" y="400" fill="#2326EB" width="64" height="64"/>
		<rect x="596" y="400" fill="#1114BB" width="64" height="64"/>
		<rect x="664" y="400" fill="#0B0D7E" width="64" height="64"/>
		<rect x="732" y="400" fill="#05063D" width="64" height="64"/>
		<rect x="800" y="400" fill="#030321" width="64" height="64"/>
	</g>

	<!-- blue -->
	<g>
		<rect x="120" y="468" fill="#EBF3FE" width="64" height="64"/>
		<rect x="188" y="468" fill="#D8E6FD" width="64" height="64"/>
		<rect x="256" y="468" fill="#B1CEFB" width="64" height="64"/>
		<rect x="324" y="468" fill="#8AB5FA" width="64" height="64"/>
		<rect x="392" y="468" fill="#639CF8" width="64" height="64"/>
		<rect x="460" y="468" fill="#3B82F6" width="64" height="64"/>
		<rect x="528" y="468" fill="#0B60EA" width="64" height="64"/>
		<rect x="596" y="468" fill="#0848B0" width="64" height="64"/>
		<rect x="664" y="468" fill="#053075" width="64" height="64"/>
		<rect x="732" y="468" fill="#03183B" width="64" height="64"/>
		<rect x="800" y="468" fill="#010C1D" width="64" height="64"/>
	</g>

	<!-- sky -->
	<g>
		<rect x="120" y="536" fill="#E7F6FE" width="64" height="64"/>
		<rect x="188" y="536" fill="#CFEEFC" width="64" height="64"/>
		<rect x="256" y="536" fill="#9ADBF9" width="64" height="64"/>
		<rect x="324" y="536" fill="#6ACAF6" width="64" height="64"/>
		<rect x="392" y="536" fill="#3AB8F3" width="64" height="64"/>
		<rect x="460" y="536" fill="#0EA5E9" width="64" height="64"/>
		<rect x="528" y="536" fill="#0B84BC" width="64" height="64"/>
		<rect x="596" y="536" fill="#08628C" width="64" height="64"/>
		<rect x="664" y="536" fill="#05405B" width="64" height="64"/>
		<rect x="732" y="536" fill="#032230" width="64" height="64"/>
		<rect x="800" y="536" fill="#011118" width="64" height="64"/>
	</g>

	<!-- cyan -->
	<g>
		<rect x="120" y="604" fill="#E1FAFE" width="64" height="64"/>
		<rect x="188" y="604" fill="#C8F6FD" width="64" height="64"/>
		<rect x="256" y="604" fill="#8DEBFC" width="64" height="64"/>
		<rect x="324" y="604" fill="#56E2FA" width="64" height="64"/>
		<rect x="392" y="604" fill="#1BD7F9" width="64" height="64"/>
		<rect x="460" y="604" fill="#06B6D4" width="64" height="64"/>
		<rect x="528" y="604" fill="#0590A9" width="64" height="64"/>
		<rect x="596" y="604" fill="#046E81" width="64" height="64"/>
		<rect x="664" y="604" fill="#024854" width="64" height="64"/>
		<rect x="732" y="604" fill="#01262D" width="64" height="64"/>
		<rect x="800" y="604" fill="#011114" width="64" height="64"/>
	</g>

	<!-- teal -->
	<g>
		<rect x="120" y="672" fill="#E3FCF9" width="64" height="64"/>
		<rect x="188" y="672" fill="#C8F9F3" width="64" height="64"/>
		<rect x="256" y="672" fill="#91F3E8" width="64" height="64"/>
		<rect x="324" y="672" fill="#59EDDC" width="64" height="64"/>
		<rect x="392" y="672" fill="#22E7D0" width="64" height="64"/>
		<rect x="460" y="672" fill="#14B8A6" width="64" height="64"/>
		<rect x="528" y="672" fill="#109384" width="64" height="64"/>
		<rect x="596" y="672" fill="#0C6E63" width="64" height="64"/>
		<rect x="664" y="672" fill="#084A42" width="64" height="64"/>
		<rect x="732" y="672" fill="#042521" width="64" height="64"/>
		<rect x="800" y="672" fill="#021210" width="64" height="64"/>
	</g>

	<!-- emerald -->
	<g>
		<rect x="120" y="740" fill="#E3FDF4" width="64" height="64"/>
		<rect x="188" y="740" fill="#C7FAE9" width="64" height="64"/>
		<rect x="256" y="740" fill="#8EF5D3" width="64" height="64"/>
		<rect x="324" y="740" fill="#56F0BD" width="64" height="64"/>
		<rect x="392" y="740" fill="#1EECA7" width="64" height="64"/>
		<rect x="460" y="740" fill="#10B981" width="64" height="64"/>
		<rect x="528" y="740" fill="#0D9668" width="64" height="64"/>
		<rect x="596" y="740" fill="#0A714E" width="64" height="64"/>
		<rect x="664" y="740" fill="#064B34" width="64" height="64"/>
		<rect x="732" y="740" fill="#03261A" width="64" height="64"/>
		<rect x="800" y="672" fill="#02130D" width="64" height="64"/>
	</g>

	<!-- green -->
	<g>
		<rect x="120" y="808" fill="#E9FBF0" width="64" height="64"/>
		<rect x="188" y="808" fill="#CFF7DE" width="64" height="64"/>
		<rect x="256" y="808" fill="#9FEFBC" width="64" height="64"/>
		<rect x="324" y="808" fill="#6FE69B" width="64" height="64"/>
		<rect x="392" y="808" fill="#40DE7A" width="64" height="64"/>
		<rect x="460" y="808" fill="#22C55E" width="64" height="64"/>
		<rect x="528" y="808" fill="#1B9D4B" width="64" height="64"/>
		<rect x="596" y="808" fill="#147538" width="64" height="64"/>
		<rect x="664" y="808" fill="#0D4E25" width="64" height="64"/>
		<rect x="732" y="808" fill="#072713" width="64" height="64"/>
		<rect x="800" y="808" fill="#04160A" width="64" height="64"/>
	</g>

	<!-- olive -->
	<g>
		<rect x="120" y="876" fill="#F3F9EC" width="64" height="64"/>
		<rect x="188" y="876" fill="#E9F4DD" width="64" height="64"/>
		<rect x="256" y="876" fill="#D0E7B6" width="64" height="64"/>
		<rect x="324" y="876" fill="#BADB94" width="64" height="64"/>
		<rect x="392" y="876" fill="#A1CF6D" width="64" height="64"/>
		<rect x="460" y="876" fill="#8BC34A" width="64" height="64"/>
		<rect x="528" y="876" fill="#6FA135" width="64" height="64"/>
		<rect x="596" y="876" fill="#547B29" width="64" height="64"/>
		<rect x="664" y="876" fill="#37501B" width="64" height="64"/>
		<rect x="732" y="876" fill="#1D2A0E" width="64" height="64"/>
		<rect x="800" y="876" fill="#0D1306" width="64" height="64"/>
	</g>

	<!-- lime -->
	<g>
		<rect x="120" y="944" fill="#F9FBE9" width="64" height="64"/>
		<rect x="188" y="944" fill="#F5F8D8" width="64" height="64"/>
		<rect x="256" y="944" fill="#EBF1B1" width="64" height="64"/>
		<rect x="324" y="944" fill="#E1EA8A" width="64" height="64"/>
		<rect x="392" y="944" fill="#D5E35F" width="64" height="64"/>
		<rect x="460" y="944" fill="#CDDC39" width="64" height="64"/>
		<rect x="528" y="944" fill="#ABBA21" width="64" height="64"/>
		<rect x="596" y="944" fill="#838F19" width="64" height="64"/>
		<rect x="664" y="944" fill="#585F11" width="64" height="64"/>
		<rect x="732" y="944" fill="#2C3008" width="64" height="64"/>
		<rect x="800" y="944" fill="#141604" width="64" height="64"/>
	</g>

	<!-- yellow -->
	<g>
		<rect x="120" y="1012" fill="#FFFDEB" width="64" height="64"/>
		<rect x="188" y="1012" fill="#FFFBD6" width="64" height="64"/>
		<rect x="256" y="1012" fill="#FFF7B3" width="64" height="64"/>
		<rect x="324" y="1012" fill="#FFF38A" width="64" height="64"/>
		<rect x="392" y="1012" fill="#FFEF61" width="64" height="64"/>
		<rect x="460" y="1012" fill="#FFEB3B" width="64" height="64"/>
		<rect x="528" y="1012" fill="#FAE100" width="64" height="64"/>
		<rect x="596" y="1012" fill="#BDAA00" width="64" height="64"/>
		<rect x="664" y="1012" fill="#807300" width="64" height="64"/>
		<rect x="732" y="1012" fill="#3D3700" width="64" height="64"/>
		<rect x="800" y="1012" fill="#1F1C00" width="64" height="64"/>
	</g>

	<!-- amber -->
	<g>
		<rect x="120" y="1080" fill="#FFF9E5" width="64" height="64"/>
		<rect x="188" y="1080" fill="#FFF2CC" width="64" height="64"/>
		<rect x="256" y="1080" fill="#FFE79E" width="64" height="64"/>
		<rect x="324" y="1080" fill="#FFDA6B" width="64" height="64"/>
		<rect x="392" y="1080" fill="#FFCD38" width="64" height="64"/>
		<rect x="460" y="1080" fill="#FFC107" width="64" height="64"/>
		<rect x="528" y="1080" fill="#D19D00" width="64" height="64"/>
		<rect x="596" y="1080" fill="#9E7700" width="64" height="64"/>
		<rect x="664" y="1080" fill="#6B5000" width="64" height="64"/>
		<rect x="732" y="1080" fill="#332600" width="64" height="64"/>
		<rect x="800" y="1080" fill="#191300" width="64" height="64"/>
	</g>

	<!-- orange -->
	<g>
		<rect x="120" y="1148" fill="#FFF5E5" width="64" height="64"/>
		<rect x="188" y="1148" fill="#FFEBCC" width="64" height="64"/>
		<rect x="256" y="1148" fill="#FFD699" width="64" height="64"/>
		<rect x="324" y="1148" fill="#FFC266" width="64" height="64"/>
		<rect x="392" y="1148" fill="#FFAD33" width="64" height="64"/>
		<rect x="460" y="1148" fill="#FF9800" width="64" height="64"/>
		<rect x="528" y="1148" fill="#CC7A00" width="64" height="64"/>
		<rect x="596" y="1148" fill="#995C00" width="64" height="64"/>
		<rect x="664" y="1148" fill="#663D00" width="64" height="64"/>
		<rect x="732" y="1148" fill="#331F00" width="64" height="64"/>
		<rect x="800" y="1148" fill="#190F00" width="64" height="64"/>
	</g>

	<!-- brown -->
	<g>
		<rect x="120" y="1216" fill="#F4EEEC" width="64" height="64"/>
		<rect x="188" y="1216" fill="#E8DDD9" width="64" height="64"/>
		<rect x="256" y="1216" fill="#CFB8AF" width="64" height="64"/>
		<rect x="324" y="1216" fill="#B99589" width="64" height="64"/>
		<rect x="392" y="1216" fill="#A0705F" width="64" height="64"/>
		<rect x="460" y="1216" fill="#795548" width="64" height="64"/>
		<rect x="528" y="1216" fill="#604339" width="64" height="64"/>
		<rect x="596" y="1216" fill="#4A342C" width="64" height="64"/>
		<rect x="664" y="1216" fill="#30221D" width="64" height="64"/>
		<rect x="732" y="1216" fill="#1A120F" width="64" height="64"/>
		<rect x="800" y="1216" fill="#0D0908" width="64" height="64"/>
	</g>

	<!-- stone -->
	<g>
		<rect x="120" y="1284" fill="#F1F0EF" width="64" height="64"/>
		<rect x="188" y="1284" fill="#E4E3E1" width="64" height="64"/>
		<rect x="256" y="1284" fill="#CAC6C4" width="64" height="64"/>
		<rect x="324" y="1284" fill="#AFAAA6" width="64" height="64"/>
		<rect x="392" y="1284" fill="#958E89" width="64" height="64"/>
		<rect x="460" y="1284" fill="#78716C" width="64" height="64"/>
		<rect x="528" y="1284" fill="#615B57" width="64" height="64"/>
		<rect x="596" y="1284" fill="#484441" width="64" height="64"/>
		<rect x="664" y="1284" fill="#302D2B" width="64" height="64"/>
		<rect x="732" y="1284" fill="#181716" width="64" height="64"/>
		<rect x="800" y="1284" fill="#0B0A0A" width="64" height="64"/>
	</g>

	<!-- grey -->
	<g>
		<rect x="120" y="1352" fill="#F5F5F5" width="64" height="64"/>
		<rect x="188" y="1352" fill="#EBEBEB" width="64" height="64"/>
		<rect x="256" y="1352" fill="#D9D9D9" width="64" height="64"/>
		<rect x="324" y="1352" fill="#C4C4C4" width="64" height="64"/>
		<rect x="392" y="1352" fill="#B3B3B3" width="64" height="64"/>
		<rect x="460" y="1352" fill="#9E9E9E" width="64" height="64"/>
		<rect x="528" y="1352" fill="#808080" width="64" height="64"/>
		<rect x="596" y="1352" fill="#5E5E5E" width="64" height="64"/>
		<rect x="664" y="1352" fill="#404040" width="64" height="64"/>
		<rect x="732" y="1352" fill="#1F1F1F" width="64" height="64"/>
		<rect x="800" y="1352" fill="#0F0F0F" width="64" height="64"/>
	</g>

	<!-- asphalt -->
	<g>
		<rect x="120" y="1420" fill="#E8EDF2" width="64" height="64"/>
		<rect x="188" y="1420" fill="#D1DBE6" width="64" height="64"/>
		<rect x="256" y="1420" fill="#A0B5CA" width="64" height="64"/>
		<rect x="324" y="1420" fill="#7291B1" width="64" height="64"/>
		<rect x="392" y="1420" fill="#4E6E8D" width="64" height="64"/>
		<rect x="460" y="1420" fill="#34495E" width="64" height="64"/>
		<rect x="528" y="1420" fill="#2A3B4C" width="64" height="64"/>
		<rect x="596" y="1420" fill="#1F2B38" width="64" height="64"/>
		<rect x="664" y="1420" fill="#141C24" width="64" height="64"/>
		<rect x="732" y="1420" fill="#0B0F14" width="64" height="64"/>
		<rect x="800" y="1420" fill="#05080A" width="64" height="64"/>
	</g>
</g>

<!-- Color names -->
<g>
	<text transform="matrix(1 0 0 1 16 96)" font-size="18">red</text>
	<text transform="matrix(1 0 0 1 16 164)" font-size="18">pink</text>
	<text transform="matrix(1 0 0 1 16 232)" font-size="18">fuchsia</text>
	<text transform="matrix(1 0 0 1 16 300)" font-size="18">purple</text>
	<text transform="matrix(1 0 0 1 16 368)" font-size="18">amethyst</text>
	<text transform="matrix(1 0 0 1 16 436)" font-size="18">indigo</text>
	<text transform="matrix(1 0 0 1 16 504)" font-size="18">blue</text>
	<text transform="matrix(1 0 0 1 16 572)" font-size="18">sky</text>
	<text transform="matrix(1 0 0 1 16 640)" font-size="18">cyan</text>
	<text transform="matrix(1 0 0 1 16 708)" font-size="18">teal</text>
	<text transform="matrix(1 0 0 1 16 776)" font-size="18">emerald</text>
	<text transform="matrix(1 0 0 1 16 844)" font-size="18">green</text>
	<text transform="matrix(1 0 0 1 16 912)" font-size="18">olive</text>
	<text transform="matrix(1 0 0 1 16 980)" font-size="18">lime</text>
	<text transform="matrix(1 0 0 1 16 1048)" font-size="18">yellow</text>
	<text transform="matrix(1 0 0 1 16 1116)" font-size="18">amber</text>
	<text transform="matrix(1 0 0 1 16 1184)" font-size="18">orange</text>
	<text transform="matrix(1 0 0 1 16 1252)" font-size="18">brown</text>
	<text transform="matrix(1 0 0 1 16 1320)" font-size="18">stone</text>
	<text transform="matrix(1 0 0 1 16 1388)" font-size="18">grey</text>
	<text transform="matrix(1 0 0 1 16 1456)" font-size="18">asphalt</text>
</g>

<!-- Color indexs -->
<g>
	<text transform="matrix(1 0 0 1 146 36)" font-size="18">50</text>
	<text transform="matrix(1 0 0 1 207 36)" font-size="18">100</text>
	<text transform="matrix(1 0 0 1 275 36)" font-size="18">200</text>
	<text transform="matrix(1 0 0 1 343 36)" font-size="18">300</text>
	<text transform="matrix(1 0 0 1 411 36)" font-size="18">400</text>
	<text transform="matrix(1 0 0 1 479 36)" font-size="18">500</text>
	<text transform="matrix(1 0 0 1 547 36)" font-size="18">600</text>
	<text transform="matrix(1 0 0 1 615 36)" font-size="18">700</text>
	<text transform="matrix(1 0 0 1 683 36)" font-size="18">800</text>
	<text transform="matrix(1 0 0 1 751 36)" font-size="18">900</text>
	<text transform="matrix(1 0 0 1 819 36)" font-size="18">950</text>
</g>

</svg>
